<!-- Generator: Adobe Illustrator 25.2.0, SVG Export Plug-In  -->
<svg version="1.1" xmlns="http://www.w3.org/2000/svg" xmlns:xlink="http://www.w3.org/1999/xlink" x="0px" y="0px"
	 width="228.55px" height="55px" viewBox="0 0 228.55 55" style="overflow:visible;enable-background:new 0 0 228.55 55;"
	 xml:space="preserve">
<style type="text/css">
	.st0{fill:#254068;}
</style>
<defs>
</defs>
<g>
	<rect x="62.3" y="20.39" class="st0" width="14.54" height="33.77"/>
	<polygon class="st0" points="98.45,20.39 98.45,34.08 81.3,20.39 81.3,54.15 95.84,54.15 95.84,40.46 112.99,54.15 112.99,20.39 	
		"/>
	<polygon class="st0" points="173.45,20.39 173.45,34.08 156.29,20.39 156.29,54.15 170.83,54.15 170.83,40.46 187.98,54.15 
		187.98,20.39 	"/>
	<path class="st0" d="M136.84,30.19c3.9,0,6.11,3.17,4.91,7.08s-5.34,7.08-9.24,7.08c-3.9,0-6.11-3.17-4.91-7.08
		C128.8,33.37,132.94,30.19,136.84,30.19 M134.68,19.73c-9.69,0-17.54,7.85-17.54,17.54s7.85,17.54,17.54,17.54
		c9.69,0,17.54-7.85,17.54-17.54S144.37,19.73,134.68,19.73L134.68,19.73z"/>
	<g>
		<polygon class="st0" points="216.26,54.15 228.55,54.15 210.3,19.98 192.06,54.15 204.35,54.15 210.3,43.01 		"/>
	</g>
	<g>
		<polygon class="st0" points="39.6,31.54 33.64,20.39 28.92,20.39 24.32,20.39 18.37,31.54 12.42,20.39 0,20.39 18,55 28.92,35.08 
			39.84,55 57.84,20.39 45.55,20.39 		"/>
	</g>
	<path class="st0" d="M71.73,0c3.9,0,6.11,3.17,4.91,7.08c-1.19,3.9-5.34,7.08-9.24,7.08c-3.9,0-6.11-3.17-4.91-7.08
		S67.83,0,71.73,0"/>
</g>
</svg>
