<?xml version="1.0" encoding="UTF-8"?>
<svg version="1.1" xmlns="http://www.w3.org/2000/svg" width="1920" height="698">
<path d="M0 0 C633.6 0 1267.2 0 1920 0 C1920 230.34 1920 460.68 1920 698 C1286.4 698 652.8 698 0 698 C0 467.66 0 237.32 0 0 Z " fill="#D74532" transform="translate(0,0)"/>
<path d="M0 0 C19.243125 -0.04125 38.48625 -0.0825 58.3125 -0.125 C64.35216064 -0.14320801 70.39182129 -0.16141602 76.61450195 -0.18017578 C84.08239746 -0.18920898 84.08239746 -0.18920898 87.59635925 -0.19088745 C90.01136516 -0.19392605 92.42636835 -0.20089112 94.84135437 -0.21115112 C132.27338752 -0.36200535 132.27338752 -0.36200535 147.3125 4.1875 C148.04557373 4.40253174 148.77864746 4.61756348 149.53393555 4.83911133 C162.30917323 8.77369024 172.87570916 15.41962935 183 24 C183.73863281 24.62390625 184.47726562 25.2478125 185.23828125 25.890625 C208.45459232 47.2924348 214.68217128 81.19074936 216.10498047 111.21533203 C217.40310029 145.39377863 211.51360586 177.9476762 189.25 204.75 C173.19943171 221.79769778 154.00680868 228.49073828 131.5859375 233.1328125 C130.55025635 233.34768311 130.55025635 233.34768311 129.49365234 233.56689453 C121.99372479 234.8695058 114.76871106 235.13870682 107.16796875 235.11352539 C105.98745438 235.11364593 104.80694 235.11376646 103.59065247 235.11389065 C99.78958212 235.11314744 95.98856151 235.10554624 92.1875 235.09765625 C89.83268253 235.096185 87.47786474 235.09516542 85.12304688 235.09460449 C76.41535958 235.08937287 67.7076793 235.07541161 59 235.0625 C29.795 235.0315625 29.795 235.0315625 0 235 C0 157.45 0 79.9 0 0 Z " fill="#000000" transform="translate(260,136)"/>
<path d="M0 0 C19.243125 -0.04125 38.48625 -0.0825 58.3125 -0.125 C64.35216064 -0.14320801 70.39182129 -0.16141602 76.61450195 -0.18017578 C84.08239746 -0.18920898 84.08239746 -0.18920898 87.59635925 -0.19088745 C90.01136516 -0.19392605 92.42636835 -0.20089112 94.84135437 -0.21115112 C132.27338752 -0.36200535 132.27338752 -0.36200535 147.3125 4.1875 C148.04557373 4.40253174 148.77864746 4.61756348 149.53393555 4.83911133 C173.88209782 12.33797499 190.98561258 28.91625292 202.72070312 51.06054688 C205.46924683 56.51505788 207.58784285 62.03752889 209.375 67.875 C209.71446655 68.96723877 209.71446655 68.96723877 210.06079102 70.08154297 C214.31295491 85.03038201 215.49912505 100.23430527 215.39111328 115.70629883 C215.37502676 118.43296446 215.39107699 121.15814419 215.41015625 123.88476562 C215.44700354 153.31583663 209.33586986 181.75657786 189 204 C188.24074219 204.85207031 187.48148438 205.70414063 186.69921875 206.58203125 C180.24424016 213.45959437 173.11408215 218.32487592 165 223 C164.15308594 223.49371094 163.30617188 223.98742187 162.43359375 224.49609375 C156.44399215 227.58222876 150.08183993 229.14057648 143.5625 230.6875 C142.72396484 230.89020508 141.88542969 231.09291016 141.02148438 231.30175781 C97.31411275 240.97681901 36.06438656 235 0 235 C0 157.45 0 79.9 0 0 Z " fill="#000000" transform="translate(662,430)"/>
<path d="M0 0 C33.165 -0.0309375 33.165 -0.0309375 67 -0.0625 C73.95449219 -0.071604 80.90898438 -0.08070801 88.07421875 -0.09008789 C96.63476562 -0.09460449 96.63476562 -0.09460449 100.65551758 -0.09544373 C103.43482275 -0.09636696 106.21410838 -0.10008044 108.9934082 -0.10557556 C148.74426713 -0.18062514 148.74426713 -0.18062514 161.75 2.75 C162.54728516 2.9262793 163.34457031 3.10255859 164.16601562 3.28417969 C181.31378478 7.26218443 194.55719922 15.85875328 204.1875 30.6875 C213.21417632 46.27903182 214.69573019 66.96451964 210.3125 84.25 C204.91956701 101.40933225 194.25782572 114.81081491 178.5078125 123.72265625 C171.85956986 127.10891068 165.22774608 129.25800623 158 131 C159.02738281 131.44988281 160.05476562 131.89976562 161.11328125 132.36328125 C170.97814581 136.86467793 177.97272688 141.5760701 185 150 C185.79277344 150.94617188 186.58554687 151.89234375 187.40234375 152.8671875 C195.51164672 163.40796705 201.1438458 175.42799819 207.10742188 187.25927734 C210.02074276 193.03111896 212.99867402 198.76967508 215.9725647 204.51046753 C216.90455881 206.31134815 217.8335603 208.11377654 218.76245117 209.91625977 C222.32498137 216.82147755 222.32498137 216.82147755 225.99658203 223.66894531 C226.32203506 224.26534821 226.6474881 224.8617511 226.98280334 225.47622681 C227.89017486 227.1330179 228.80343413 228.78658051 229.71704102 230.43994141 C231 233 231 233 231 235 C203.94 235 176.88 235 149 235 C144.05 225.76 139.1 216.52 134 207 C129.53017922 198.7970966 129.53017922 198.7970966 125.046875 190.6015625 C122.79862292 186.4866969 120.58791407 182.35323431 118.390625 178.2109375 C117.46648804 176.47481201 117.46648804 176.47481201 116.52368164 174.70361328 C115.33777483 172.4730804 114.15690596 170.23985833 112.98217773 168.00341797 C104.90522588 152.64761925 104.90522588 152.64761925 91.5 142.3125 C85.48585002 140.55837292 79.20177576 139.88596797 73 139 C73 170.68 73 202.36 73 235 C48.91 235 24.82 235 0 235 C0 157.45 0 79.9 0 0 Z " fill="#000000" transform="translate(514,136)"/>
<path d="M0 0 C22.44 0 44.88 0 68 0 C70.31 3.63 72.62 7.26 75 11 C76.94368522 13.88702045 78.89693916 16.76201721 80.875 19.625 C82.01339187 21.280995 83.1513923 22.93725913 84.2890625 24.59375 C84.88879883 25.46644531 85.48853516 26.33914062 86.10644531 27.23828125 C89.50204484 32.190708 92.87529856 37.15831983 96.25 42.125 C96.96446289 43.1761499 97.67892578 44.2272998 98.41503906 45.31030273 C99.87737728 47.46184703 101.33961624 49.61345879 102.80175781 51.76513672 C111.73511691 64.91118382 120.67073806 78.05567896 129.625 91.1875 C130.22747559 92.07131348 130.82995117 92.95512695 131.45068359 93.86572266 C134.68446693 98.60854713 137.9221416 103.34867119 141.1640625 108.0859375 C141.84774902 109.0860083 142.53143555 110.0860791 143.23583984 111.11645508 C144.54488859 113.03115704 145.85504846 114.94509998 147.16650391 116.8581543 C147.75608887 117.72093994 148.34567383 118.58372559 148.953125 119.47265625 C149.72897949 120.60586304 149.72897949 120.60586304 150.52050781 121.76196289 C152.08519889 124.1288809 153.5401951 126.56699184 155 129 C155.33 86.43 155.66 43.86 156 0 C178.44 0 200.88 0 224 0 C224 77.55 224 155.1 224 235 C201.23 235 178.46 235 155 235 C150.38 228.07 145.76 221.14 141 214 C137.23847615 208.485533 133.47351094 202.97427306 129.69482422 197.47167969 C126.66266993 193.04967882 123.64430198 188.61828174 120.625 184.1875 C119.99859619 183.268479 119.37219238 182.34945801 118.72680664 181.40258789 C117.45356076 179.53454101 116.18036758 177.6664582 114.90722656 175.79833984 C112.39542489 172.11294931 109.88296388 168.42800861 107.37036133 164.74316406 C106.12264111 162.91319613 104.87508272 161.08311784 103.62768555 159.25292969 C100.49340014 154.65461651 97.35662066 150.05804222 94.21484375 145.46484375 C93.58191406 144.53865234 92.94898438 143.61246094 92.296875 142.65820312 C91.13247806 140.95441642 89.9672466 139.2511994 88.80078125 137.54882812 C82.11204921 127.75683553 75.57926661 117.86889992 69 108 C68.67 149.91 68.34 191.82 68 235 C45.56 235 23.12 235 0 235 C0 157.45 0 79.9 0 0 Z " fill="#000000" transform="translate(897,136)"/>
<path d="M0 0 C23.76 0 47.52 0 72 0 C72.33 28.71 72.66 57.42 73 87 C79.20075984 80.23553472 85.10780285 73.74333383 90.8203125 66.6484375 C92.97757399 64.02724881 95.21311 61.50845719 97.5 59 C100.61458668 55.58260628 103.5918662 52.0947765 106.5 48.5 C110.11032442 44.03723787 113.88427929 39.77280467 117.75 35.53125 C120.07862053 32.9115519 122.29562947 30.2248469 124.5 27.5 C128.10043998 23.04945613 131.86285226 18.79567436 135.71875 14.56640625 C139.01525265 10.85784077 142.13235469 7.01151234 145.25 3.15234375 C147 1 147 1 148 0 C150.98298214 -0.0952822 153.94276345 -0.12552175 156.92602539 -0.11352539 C157.86251419 -0.11367142 158.79900299 -0.11381744 159.76387024 -0.1139679 C162.87515539 -0.11326837 165.98638149 -0.10547415 169.09765625 -0.09765625 C171.24857043 -0.09579221 173.39948503 -0.09436824 175.55039978 -0.09336853 C181.22381758 -0.08954225 186.89720995 -0.07971102 192.57061768 -0.06866455 C198.35501766 -0.0584528 204.13942173 -0.05387142 209.92382812 -0.04882812 C221.28256328 -0.03808885 232.64127953 -0.02101111 244 0 C243.06492428 1.0963255 242.12905719 2.19197604 241.19287109 3.28735352 C240.67179779 3.89756851 240.15072449 4.50778351 239.61386108 5.13648987 C237.01847966 8.13335226 234.33059173 11.04025074 231.625 13.9375 C231.03066162 14.57502197 230.43632324 15.21254395 229.82397461 15.86938477 C224.54109148 21.49756333 219.10358782 26.9627362 213.59423828 32.36889648 C210.48666853 35.43460136 207.49487514 38.53344568 204.65234375 41.84765625 C199.56468812 47.74876393 193.92965528 53.11407092 188.3828125 58.578125 C183.96745285 62.95322301 179.72083489 67.37924186 175.67529297 72.09765625 C172.78608975 75.3784303 169.67376916 78.43153137 166.5625 81.5 C165.92634766 82.13164062 165.29019531 82.76328125 164.63476562 83.4140625 C163.09217194 84.94505774 161.54642686 86.47287667 160 88 C163.95045543 95.39197831 168.10939891 102.61166358 172.5 109.75 C173.74227875 111.77989207 174.98446365 113.80984159 176.2265625 115.83984375 C176.8546582 116.8644873 177.48275391 117.88913086 178.12988281 118.94482422 C180.48410453 122.79087259 182.82529721 126.64474769 185.16601562 130.49902344 C190.74606749 139.68538311 196.36155695 148.84937267 202 158 C209.98614909 170.96071868 217.90606903 183.96099852 225.80566406 196.97460938 C227.61966277 199.96271414 229.43465314 202.95021411 231.25 205.9375 C231.82782227 206.88931152 232.40564453 207.84112305 233.00097656 208.82177734 C235.67081421 213.21077087 238.35741496 217.58669901 241.1015625 221.9296875 C241.57303711 222.67613525 242.04451172 223.42258301 242.53027344 224.19165039 C243.40165041 225.56595173 244.27705715 226.93770959 245.15722656 228.30639648 C248 232.78285738 248 232.78285738 248 235 C218.63 235 189.26 235 159 235 C139.91208791 197.88461538 139.91208791 197.88461538 133.21875 184.40625 C130.49133633 178.95142265 127.62881166 173.56913639 124.77001953 168.18237305 C120.01956052 159.20247919 115.50529405 150.10475019 111 141 C107.1741722 140.55883075 107.1741722 140.55883075 105.53515625 142.29296875 C105.04917969 142.91816406 104.56320312 143.54335938 104.0625 144.1875 C100.75567404 148.20854323 97.20668661 151.8543115 93.5 155.5 C89.37975288 159.57131445 85.36231807 163.65031581 81.68202209 168.13230896 C80 170 80 170 78.19529724 171.41517639 C75.0615572 173.93638674 73.25605003 175.87619492 72.34768677 179.86300659 C72.09464045 183.38148158 72.05642601 186.84386415 72.09765625 190.37109375 C72.08504761 191.50421997 72.07243896 192.63734619 72.05944824 193.80480957 C72.02269354 198.01554609 72.04613401 202.22663487 72.0625 206.4375 C72.041875 215.863125 72.02125 225.28875 72 235 C48.24 235 24.48 235 0 235 C0 157.45 0 79.9 0 0 Z " fill="#000000" transform="translate(1170,136)"/>
<path d="M0 0 C64.35 0 128.7 0 195 0 C195 16.5 195 33 195 50 C154.74 50 114.48 50 73 50 C73 62.54 73 75.08 73 88 C110.29 88 147.58 88 186 88 C186 103.51 186 119.02 186 135 C148.71 135 111.42 135 73 135 C73 150.51 73 166.02 73 182 C114.25 182 155.5 182 198 182 C198 199.49 198 216.98 198 235 C132.66 235 67.32 235 0 235 C0 157.45 0 79.9 0 0 Z " fill="#000000" transform="translate(915,430)"/>
<path d="M0 0 C6.51645354 5.82677116 10.9422279 12.46892206 15.02246094 20.17382812 C15.63347656 21.27597656 15.63347656 21.27597656 16.25683594 22.40039062 C20.30528085 30.46613857 23.02246094 41.19500916 23.02246094 50.17382812 C0.39501073 52.27351255 -22.2796518 53.2030459 -44.97753906 54.17382812 C-45.18086853 53.55726852 -45.384198 52.94070892 -45.59368896 52.3054657 C-45.86183411 51.49591934 -46.12997925 50.68637299 -46.40625 49.85229492 C-46.67145447 49.05011032 -46.93665894 48.24792572 -47.2098999 47.4214325 C-50.22186051 38.6025809 -54.02407129 32.51612582 -62.20410156 27.92382812 C-68.27436956 25.21757862 -74.11472368 24.79587645 -80.66503906 24.73632812 C-81.46071289 24.72617676 -82.25638672 24.71602539 -83.07617188 24.70556641 C-89.9030962 24.80625432 -95.56688119 26.07760389 -100.85253906 30.67382812 C-104.92909287 35.46977378 -105.50325302 38.29802353 -105.33300781 44.45117188 C-104.92745512 47.55743809 -104.09962031 49.69811696 -101.82275391 51.91918945 C-93.94694487 57.27428109 -84.25421288 59.29404075 -75.08255005 61.19842529 C-71.6571555 61.91274209 -68.24181291 62.67274533 -64.82519531 63.42773438 C-64.14748581 63.57674194 -63.46977631 63.72574951 -62.77153015 63.87927246 C-34.45261778 70.13263154 -5.81637207 78.08008585 15.02246094 99.17382812 C15.63863281 99.7796875 16.25480469 100.38554687 16.88964844 101.00976562 C26.19685116 110.89565453 30.31171369 124.90654609 31.02246094 138.17382812 C31.10173828 139.17929687 31.10173828 139.17929687 31.18261719 140.20507812 C31.72790045 152.53322136 28.4673483 165.21903983 23.02246094 176.17382812 C22.6421875 176.96015625 22.26191406 177.74648438 21.87011719 178.55664062 C11.20797266 199.16294015 -7.70368722 210.87666819 -28.97753906 218.17382812 C-63.44288023 228.78846562 -109.46150821 226.26877482 -142.02050781 210.72070312 C-155.56774336 203.50018431 -164.52957391 192.31910271 -171.97753906 179.17382812 C-172.46867187 178.31789063 -172.95980469 177.46195313 -173.46582031 176.58007812 C-178.78515309 166.17197188 -182.0748002 152.84747907 -181.97753906 141.17382812 C-174.45788065 140.6482305 -166.93796859 140.12639987 -159.41772652 139.60922241 C-155.92484 139.36889619 -152.43204893 139.12733016 -148.93945312 138.8828125 C-144.9133437 138.60100037 -140.88686598 138.32479388 -136.86035156 138.04882812 C-135.00194138 137.91758545 -135.00194138 137.91758545 -133.10598755 137.78369141 C-126.38323926 137.32762024 -119.71586747 137.05185648 -112.97753906 137.17382812 C-112.74679687 138.22441406 -112.51605469 139.275 -112.27832031 140.35742188 C-109.11024374 154.21672508 -104.91746696 163.86523336 -92.48144531 171.81445312 C-82.60255392 177.17772021 -70.37679337 177.88263305 -59.60253906 174.98632812 C-51.57751255 172.15319069 -46.42535695 168.45207558 -41.97753906 161.17382812 C-40.08831375 155.50615218 -39.76960657 149.15577218 -42.03613281 143.56054688 C-49.07555205 132.20972182 -62.51353888 128.48860219 -74.86425781 125.46777344 C-78.02390247 124.75068379 -81.18709982 124.05237805 -84.35253906 123.36132812 C-108.53247966 118.0415279 -132.36329449 110.74284721 -151.97753906 95.17382812 C-153.02941406 94.41070312 -154.08128906 93.64757812 -155.16503906 92.86132812 C-165.79436295 82.70441863 -172.69675551 69.10048722 -173.27832031 54.34179688 C-173.2977534 52.68174977 -173.30129958 51.02145078 -173.29003906 49.36132812 C-173.28439941 48.48476562 -173.27875977 47.60820312 -173.27294922 46.70507812 C-172.95151071 29.46833576 -165.9470433 15.68515325 -154.18066406 3.27929688 C-119.07013422 -29.95567048 -37.11103228 -30.92205398 0 0 Z " fill="#000000" transform="translate(1611.9775390625,151.826171875)"/>
<path d="M0 0 C21.965625 -0.061875 43.93125 -0.12375 66.5625 -0.1875 C73.47388916 -0.21481201 80.38527832 -0.24212402 87.50610352 -0.27026367 C96.00769043 -0.28381348 96.00769043 -0.28381348 99.99961853 -0.28633118 C102.76153434 -0.28910313 105.52327356 -0.30025234 108.28514099 -0.31672668 C111.82681915 -0.33756707 115.36824688 -0.34342582 118.90998065 -0.33921683 C120.797855 -0.34050346 122.68570278 -0.35645585 124.57350254 -0.37328625 C145.16433236 -0.29956259 165.87432515 5.36639565 181.1875 19.5625 C196.2384007 35.47345217 199.73680712 54.67188756 199.52612305 75.91845703 C199.26534175 84.83876541 198.20004563 92.61440188 195 101 C194.49146484 102.53527344 194.49146484 102.53527344 193.97265625 104.1015625 C188.20687159 119.98311883 176.13057528 131.68850093 161.23046875 139.13671875 C150.74475029 144.01316162 138.37098287 147.13791347 126.81103516 147.11352539 C125.59359619 147.11340454 124.37615723 147.11328369 123.12182617 147.11315918 C121.85701416 147.10804321 120.59220215 147.10292725 119.2890625 147.09765625 C117.52888794 147.09614563 117.52888794 147.09614563 115.7331543 147.09460449 C111.36375954 147.0893857 106.99437876 147.07542445 102.625 147.0625 C92.84875 147.041875 83.0725 147.02125 73 147 C73 176.04 73 205.08 73 235 C48.91 235 24.82 235 0 235 C0 157.45 0 79.9 0 0 Z " fill="#000000" transform="translate(1152,430)"/>
<path d="M0 0 C72.6 0 145.2 0 220 0 C220 19.14 220 38.28 220 58 C195.58 58 171.16 58 146 58 C146 116.41 146 174.82 146 235 C121.91 235 97.82 235 73 235 C73 176.59 73 118.18 73 58 C48.91 58 24.82 58 0 58 C0 38.86 0 19.72 0 0 Z " fill="#010000" transform="translate(1373,430)"/>
<path d="M0 0 C24.09 0 48.18 0 73 0 C73 77.55 73 155.1 73 235 C48.91 235 24.82 235 0 235 C0 157.45 0 79.9 0 0 Z " fill="#000000" transform="translate(771,136)"/>
<path d="M0 0 C45.02090198 0 45.02090198 0 58.80859375 13.43359375 C73.87189226 31.07456901 72.41735151 61.32344098 70.765625 83.08837891 C69.22717955 97.79217249 66.23381448 111.31626149 54.4375 121.25 C39.21182759 131.95463941 16.79385361 129 0 129 C0 86.43 0 43.86 0 0 Z " fill="#D64532" transform="translate(332,189)"/>
<path d="M0 0 C43.56275304 0 43.56275304 0 57.20703125 11.9296875 C68.27687855 23.14329905 70.15144353 39.24768124 70.6875 54.3125 C70.74393677 55.86130859 70.74393677 55.86130859 70.80151367 57.44140625 C72.14224018 101.74954669 72.14224018 101.74954669 58.22265625 118.0859375 C43.20882122 132.63922544 18.10683575 128 0 128 C0 85.76 0 43.52 0 0 Z " fill="#D74532" transform="translate(734,483)"/>
<path d="M0 0 C23.1 0 46.2 0 70 0 C70 21.78 70 43.56 70 66 C46.9 66 23.8 66 0 66 C0 44.22 0 22.44 0 0 Z " fill="#030101" transform="translate(1572,599)"/>
<path d="M0 0 C5.445 -0.04125 10.89 -0.0825 16.5 -0.125 C18.18158203 -0.14320801 19.86316406 -0.16141602 21.59570312 -0.18017578 C52.36937704 -0.37362207 52.36937704 -0.37362207 60.51171875 7.453125 C66.054558 13.74242111 66.61174283 19.09600082 66.37890625 27.2890625 C65.63998384 34.52593148 62.19969054 38.28536463 56.71316528 42.80099487 C46.43680037 49.99318721 30.35410948 48.47835226 18.5 48.25 C9.3425 48.12625 9.3425 48.12625 0 48 C0 32.16 0 16.32 0 0 Z " fill="#D54632" transform="translate(587,183)"/>
<path d="M0 0 C5.1975 -0.0825 10.395 -0.165 15.75 -0.25 C17.36358398 -0.28641602 18.97716797 -0.32283203 20.63964844 -0.36035156 C30.87024192 -0.43837085 40.88717075 0.09023945 49 7.125 C54.10226819 12.96329221 56.72058847 20.09013237 56.32421875 27.83984375 C55.34508448 34.36347327 52.48634284 41.09196047 47.3515625 45.375 C37.27131563 52.28716928 26.14103441 52.40785902 14.3125 52.1875 C7.2278125 52.0946875 7.2278125 52.0946875 0 52 C0 34.84 0 17.68 0 0 Z " fill="#D64531" transform="translate(1225,478)"/>
<path d="M0 0 C16.83 0 33.66 0 51 0 C51 2.64 51 5.28 51 8 C37.47 8 23.94 8 10 8 C10 14.93 10 21.86 10 29 C22.54 29 35.08 29 48 29 C48 31.97 48 34.94 48 38 C35.46 38 22.92 38 10 38 C10 45.59 10 53.18 10 61 C24.19 61 38.38 61 53 61 C53 63.97 53 66.94 53 70 C35.51 70 18.02 70 0 70 C0 46.9 0 23.8 0 0 Z " fill="#0D0504" transform="translate(394,24)"/>
<path d="M0 0 C2.97 0 5.94 0 9 0 C9 9.57 9 19.14 9 29 C21.21 29 33.42 29 46 29 C46 19.43 46 9.86 46 0 C48.97 0 51.94 0 55 0 C55 23.1 55 46.2 55 70 C52.03 70 49.06 70 46 70 C46 59.11 46 48.22 46 37 C34.12 37 22.24 37 10 37 C10 47.89 10 58.78 10 70 C6.7 70 3.4 70 0 70 C0 46.9 0 23.8 0 0 Z " fill="#070403" transform="translate(324,24)"/>
<path d="M0 0 C18.15 0 36.3 0 55 0 C55 2.64 55 5.28 55 8 C47.41 8 39.82 8 32 8 C32 28.46 32 48.92 32 70 C29.03 70 26.06 70 23 70 C23 49.54 23 29.08 23 8 C15.41 8 7.82 8 0 8 C0 5.36 0 2.72 0 0 Z " fill="#040201" transform="translate(259,24)"/>
</svg>
